<?xml version="1.0" standalone="no"?>
<!DOCTYPE svg PUBLIC "-//W3C//DTD SVG 20010904//EN"
 "http://www.w3.org/TR/2001/REC-SVG-20010904/DTD/svg10.dtd">
<svg version="1.0" xmlns="http://www.w3.org/2000/svg"
 width="247.000000pt" height="204.000000pt" viewBox="0 0 247.000000 204.000000"
 preserveAspectRatio="xMidYMid meet">

<g transform="translate(0.000000,204.000000) scale(0.100000,-0.100000)"
fill="#000000" stroke="none">
<path d="M370 2023 c-59 -10 -92 -26 -101 -50 -5 -13 -9 -76 -9 -139 l0 -114
-110 0 c-97 0 -112 -2 -130 -20 -20 -20 -20 -33 -20 -816 0 -523 4 -802 10
-814 22 -40 42 -42 162 -11 188 48 316 65 493 65 185 -1 307 -22 463 -81 106
-39 109 -39 230 6 145 54 267 74 447 75 178 0 306 -17 493 -65 119 -31 140
-30 162 11 6 12 10 291 10 814 0 783 0 796 -20 816 -17 17 -33 20 -125 20
l-105 0 0 114 c0 136 -7 160 -52 175 -58 18 -199 24 -311 12 -222 -24 -414
-103 -542 -223 l-76 -71 -62 62 c-161 161 -383 243 -656 240 -69 -1 -137 -4
-151 -6z m310 -133 c189 -30 363 -126 450 -248 l40 -55 0 -630 0 -629 -32 21
c-184 121 -446 201 -661 201 l-89 0 4 665 c3 578 5 667 18 675 20 13 189 12
270 0z m1400 -665 l0 -665 -64 0 c-196 0 -405 -63 -611 -185 -52 -30 -96 -55
-99 -55 -3 0 -6 285 -6 633 l0 632 40 48 c137 166 349 254 618 256 l122 1 0
-665z m-1820 -198 c0 -310 2 -571 5 -580 10 -25 33 -29 152 -27 177 2 352 -33
500 -100 67 -31 208 -118 201 -125 -3 -3 -27 2 -54 9 -231 68 -498 71 -801 11
-67 -14 -125 -25 -128 -25 -3 0 -5 315 -5 700 l0 700 65 0 65 0 0 -563z m2080
-137 c0 -420 -4 -700 -9 -700 -5 0 -47 9 -93 20 -263 61 -545 65 -775 10 -43
-10 -79 -17 -80 -16 -7 6 165 102 243 135 163 71 305 94 498 82 103 -6 96 -51
96 605 l0 564 60 0 60 0 0 -700z"/>
</g>
</svg>
